<?xml version="1.0" encoding="UTF-8" standalone="no"?>

<svg xmlns:dc="http://purl.org/dc/elements/1.1/" xmlns:cc="http://creativecommons.org/ns#" xmlns:rdf="http://www.w3.org/1999/02/22-rdf-syntax-ns#" xmlns:svg="http://www.w3.org/2000/svg" xmlns="http://www.w3.org/2000/svg" xmlns:sodipodi="http://sodipodi.sourceforge.net/DTD/sodipodi-0.dtd" xmlns:inkscape="http://www.inkscape.org/namespaces/inkscape" width="47.004673mm" height="72.339661mm" viewBox="0 0 47.004673 72.339661" version="1.1" id="svg8" inkscape:version="0.92.3 (2405546, 2018-03-11)" sodipodi:docname="galatasaray.svg">
  <defs id="defs2">
    <clipPath id="clipPath69" clipPathUnits="userSpaceOnUse">
      <path inkscape:connector-curvature="0" id="path67" d="M 0,247 H 231 V 0 H 0 Z"/>
    </clipPath>
  </defs>
  <sodipodi:namedview id="base" pagecolor="#ff2aff" bordercolor="#666666" borderopacity="1.0" inkscape:pageopacity="0" inkscape:pageshadow="2" inkscape:zoom="0.98994949" inkscape:cx="-110.60863" inkscape:cy="-91.848329" inkscape:document-units="mm" inkscape:current-layer="layer1" showgrid="false" fit-margin-top="0" fit-margin-left="0" fit-margin-right="0" fit-margin-bottom="0" inkscape:window-width="1920" inkscape:window-height="1001" inkscape:window-x="-9" inkscape:window-y="-9" inkscape:window-maximized="1"/>
  <metadata id="metadata5">
    <rdf:RDF>
      <cc:Work rdf:about="">
        <dc:format>image/svg+xml</dc:format>
        <dc:type rdf:resource="http://purl.org/dc/dcmitype/StillImage"/>
        <dc:title/>
      </cc:Work>
    </rdf:RDF>
  </metadata>
  <g inkscape:label="Layer 1" inkscape:groupmode="layer" id="layer1" transform="translate(-55.116709,-54.077196)">
    <g transform="matrix(0.35277777,0,0,-0.35277777,38.54328,132.77599)" inkscape:label="galatasaray-4-star-seeklogo.com" id="g61">
      <g id="g63">
        <g clip-path="url(#clipPath69)" id="g65">
          <g transform="translate(50.7627,101.6089)" id="g71">
            <path inkscape:connector-curvature="0" id="path73" style="fill:#ffffff;fill-opacity:1;fill-rule:nonzero;stroke:none" d="m 0,0 c 0,46.022 28.137,83.329 62.848,83.329 34.709,0 62.843,-37.307 62.843,-83.329 0,-46.023 -28.134,-83.33 -62.843,-83.33 C 28.137,-83.33 0,-46.023 0,0"/>
          </g>
          <g transform="translate(50.7627,101.6089)" id="g75">
            <path inkscape:connector-curvature="0" id="path77" style="fill:none;stroke:#231f20;stroke-width:0.50599998;stroke-linecap:butt;stroke-linejoin:miter;stroke-miterlimit:3.86400008;stroke-dasharray:none;stroke-opacity:1" d="m 0,0 c 0,46.022 28.137,83.329 62.848,83.329 34.709,0 62.843,-37.307 62.843,-83.329 0,-46.023 -28.134,-83.33 -62.843,-83.33 C 28.137,-83.33 0,-46.023 0,0 Z"/>
          </g>
          <g transform="translate(156.5576,94.939)" id="g79">
            <path inkscape:connector-curvature="0" id="path81" style="fill:#a90432;fill-opacity:1;fill-rule:evenodd;stroke:none" d="m 0,0 c 0.75,-3.214 1.137,-6.563 1.137,-10.005 0,-24.211 -19.627,-43.838 -43.84,-43.838 -24.213,0 -43.84,19.627 -43.84,43.838 0,24.21 19.627,43.836 43.84,43.836 12.088,0 23.033,-4.893 31.006,-12.805 l -7.127,-7.239 c -6.119,6.22 -14.463,9.942 -23.879,9.942 -18.631,0 -33.736,-15.104 -33.736,-33.734 0,-18.631 15.105,-33.735 33.736,-33.735 18.633,0 33.758,15.104 33.758,33.735 h -12.621 v 9.994 z"/>
          </g>
          <g transform="translate(106.708,130.1714)" id="g83">
            <path inkscape:connector-curvature="0" id="path85" style="fill:#fdb912;fill-opacity:1;fill-rule:evenodd;stroke:none" d="m 0,0 c -3.225,2.26 -5.355,6.005 -5.355,10.243 0,6.903 5.597,12.5 12.501,12.5 6.905,0 12.502,-5.597 12.545,-12.5 h 9.932 C 29.58,22.632 19.535,32.675 7.146,32.675 c -12.39,0 -22.433,-10.043 -22.433,-22.432 0,-7.554 3.734,-14.234 9.455,-18.301 L 21.283,-26.26 c 6.842,-5.251 9.324,-13.882 9.324,-18.978 0,-12.957 -10.503,-23.459 -23.461,-23.459 -12.957,0 -23.46,10.502 -23.46,23.459 0,3.363 0.876,7.103 2.144,9.995 h -9.646 c -1.018,-3.141 -1.413,-6.517 -1.413,-9.995 0,-17.881 14.495,-32.373 32.375,-32.373 17.881,0 32.375,14.492 32.375,32.373 0,10.662 -5.142,20.119 -13.095,26.017 z"/>
          </g>
          <g transform="translate(147.6338,84.9336)" id="g87">
            <path inkscape:connector-curvature="0" id="path89" style="fill:#a90432;fill-opacity:1;fill-rule:evenodd;stroke:none" d="m 0,0 h -12.643 v 9.995 l 21.567,0.01 C 9.674,6.792 10.061,3.442 10.061,0 Z"/>
          </g>
          <g transform="translate(102.1416,84.8477)" id="g91">
            <path inkscape:connector-curvature="0" id="path93" style="fill:#231f20;fill-opacity:1;fill-rule:evenodd;stroke:none" d="m 0,0 h -2.014 v 7.049 h -2.445 v 1.337 c 0.422,0 0.84,0.044 1.252,0.131 0.412,0.096 0.738,0.23 0.978,0.401 0.249,0.183 0.45,0.379 0.604,0.59 0.164,0.211 0.26,0.442 0.287,0.692 L 0,10.2 Z"/>
          </g>
          <g transform="translate(107.4639,93.6226)" id="g95">
            <path inkscape:connector-curvature="0" id="path97" style="fill:#231f20;fill-opacity:1;fill-rule:evenodd;stroke:none" d="m 0,0 c -0.441,0 -0.775,-0.134 -1.006,-0.403 -0.23,-0.268 -0.383,-0.522 -0.461,-0.762 -0.066,-0.24 -0.099,-0.493 -0.099,-0.762 0,-0.259 0.033,-0.504 0.099,-0.733 0.078,-0.222 0.235,-0.461 0.475,-0.72 0.25,-0.249 0.599,-0.374 1.051,-0.374 0.431,0 0.767,0.125 1.007,0.374 0.248,0.259 0.407,0.498 0.475,0.72 0.066,0.22 0.1,0.459 0.1,0.719 0,0.316 -0.047,0.613 -0.145,0.891 C 1.41,-0.762 1.295,-0.552 1.152,-0.417 1.018,-0.282 0.85,-0.182 0.648,-0.115 0.447,-0.038 0.23,0 0,0 m -1.266,-6.387 c -0.037,-0.229 0.053,-0.479 0.274,-0.748 0.23,-0.259 0.504,-0.387 0.82,-0.387 H 0 c 0.336,0 0.623,0.09 0.863,0.272 0.241,0.192 0.403,0.408 0.491,0.647 0.095,0.241 0.171,0.495 0.23,0.763 0.066,0.278 0.1,0.528 0.1,0.748 0,0.183 -0.028,0.356 -0.086,0.518 C 1.318,-4.938 1.051,-5.164 0.791,-5.249 0.543,-5.336 0.352,-5.395 0.217,-5.423 0.092,-5.451 -0.023,-5.466 -0.129,-5.466 h -0.445 c -0.155,0.029 -0.36,0.063 -0.619,0.102 -0.25,0.047 -0.561,0.211 -0.934,0.488 -0.375,0.278 -0.678,0.662 -0.908,1.15 -0.221,0.499 -0.33,1.089 -0.33,1.77 0,0.757 0.144,1.4 0.431,1.928 0.297,0.527 0.696,0.944 1.194,1.251 0.5,0.317 1.06,0.474 1.683,0.474 0.172,0 0.346,-0.013 0.518,-0.043 0.402,0 0.906,-0.186 1.512,-0.56 C 2.586,0.729 2.965,0.259 3.107,-0.315 3.289,-0.729 3.424,-1.199 3.512,-1.726 3.607,-2.254 3.654,-2.8 3.654,-3.365 3.654,-4.133 3.578,-4.89 3.424,-5.639 3.281,-6.377 3.055,-7.029 2.748,-7.595 2.451,-8.15 2.023,-8.544 1.469,-8.775 c -0.557,-0.219 -1.104,-0.33 -1.641,-0.33 -1.064,0 -1.859,0.33 -2.389,0.993 -0.527,0.661 -0.752,1.237 -0.675,1.725 z"/>
          </g>
          <g transform="translate(116.8291,87.0347)" id="g99">
            <path inkscape:connector-curvature="0" id="path101" style="fill:#231f20;fill-opacity:1;fill-rule:evenodd;stroke:none" d="M 0,0 C 0.191,0.518 0.287,1.472 0.287,2.862 0.287,4.254 0.221,5.131 0.086,5.495 -0.047,5.859 -0.23,6.1 -0.461,6.215 -0.689,6.339 -0.939,6.401 -1.209,6.401 -1.486,6.401 -1.736,6.344 -1.957,6.229 -2.178,6.123 -2.359,5.883 -2.502,5.509 -2.637,5.136 -2.705,4.254 -2.705,2.862 c 0,-1.39 0.068,-2.267 0.203,-2.632 0.133,-0.364 0.316,-0.609 0.545,-0.733 0.23,-0.115 0.48,-0.173 0.748,-0.173 0.279,0 0.527,0.053 0.748,0.158 C -0.24,-0.402 -0.086,-0.23 0,0 m -3.682,-1.524 c -0.384,0.469 -0.652,1.079 -0.806,1.826 -0.153,0.759 -0.231,1.611 -0.231,2.56 0,0.931 0.078,1.775 0.231,2.532 0.154,0.767 0.394,1.348 0.718,1.741 0.327,0.402 0.706,0.685 1.137,0.848 0.432,0.173 0.906,0.259 1.424,0.259 0.51,0 0.979,-0.086 1.41,-0.259 C 0.643,7.82 1.027,7.537 1.352,7.135 1.678,6.742 1.918,6.166 2.072,5.408 2.225,4.661 2.303,3.813 2.303,2.862 2.303,1.932 2.225,1.084 2.072,0.316 1.918,-0.441 1.678,-1.021 1.352,-1.424 1.027,-1.817 0.648,-2.095 0.217,-2.257 c -0.432,-0.174 -0.906,-0.26 -1.426,-0.26 -0.508,0 -0.982,0.086 -1.424,0.26 -0.431,0.162 -0.781,0.406 -1.049,0.733"/>
          </g>
          <g transform="translate(122.0654,87.4946)" id="g103">
            <path inkscape:connector-curvature="0" id="path105" style="fill:#231f20;fill-opacity:1;fill-rule:evenodd;stroke:none" d="m 0,0 c 0,-0.373 0.1,-0.681 0.303,-0.92 0.209,-0.24 0.613,-0.359 1.207,-0.359 0.527,0 0.912,0.181 1.152,0.547 0.238,0.373 0.359,0.834 0.359,1.38 0,0.594 -0.095,1.021 -0.289,1.28 C 2.551,2.188 2.35,2.364 2.129,2.46 1.918,2.565 1.693,2.618 1.453,2.618 H 1.295 C 1.035,2.599 0.801,2.522 0.59,2.389 0.389,2.264 0.24,2.092 0.145,1.87 h -1.829 l 0.922,5.683 H 4.674 V 5.739 H 0.475 L 0.129,3.64 C 0.293,3.745 0.461,3.836 0.633,3.913 0.805,3.999 0.969,4.066 1.121,4.114 1.285,4.162 1.41,4.191 1.496,4.201 1.592,4.22 1.727,4.229 1.898,4.229 2.061,4.229 2.221,4.22 2.373,4.201 2.535,4.182 2.854,4.091 3.322,3.927 3.793,3.765 4.199,3.381 4.545,2.776 4.891,2.183 5.064,1.511 5.064,0.764 5.064,-0.042 4.891,-0.728 4.545,-1.294 4.199,-1.86 3.797,-2.281 3.338,-2.559 2.887,-2.838 2.287,-2.977 1.539,-2.977 c -0.633,0 -1.127,0.066 -1.482,0.201 -0.344,0.135 -0.686,0.336 -1.022,0.605 -0.324,0.269 -0.58,0.575 -0.762,0.92 -0.171,0.346 -0.259,0.763 -0.259,1.251 z"/>
          </g>
          <g transform="translate(81.1338,182.4868)" id="g107">
            <path inkscape:connector-curvature="0" id="path109" style="fill:#fdb912;fill-opacity:1;fill-rule:evenodd;stroke:none" d="m 0,0 -12,5.411 1.488,12.574 -8.654,-9.613 -13.488,5.806 7.127,-12.871 -8.627,-9.581 12.32,2.762 6.664,-11.336 2.231,13.274 z"/>
          </g>
          <g transform="translate(146.0674,182.4868)" id="g111">
            <path inkscape:connector-curvature="0" id="path113" style="fill:#fdb912;fill-opacity:1;fill-rule:evenodd;stroke:none" d="M 0,0 12,5.411 10.512,17.985 19.166,8.372 32.654,14.178 25.527,1.307 34.154,-8.274 21.834,-5.512 15.17,-16.848 12.939,-3.574 Z"/>
          </g>
          <g transform="translate(110.0029,194.2632)" id="g115">
            <path inkscape:connector-curvature="0" id="path117" style="fill:#fdb912;fill-opacity:1;fill-rule:evenodd;stroke:none" d="m 0,0 -7.576,10.764 7.68,10.067 -12.342,-3.871 -8.658,11.86 -0.415,-14.706 -12.3,-3.857 12.011,-3.891 -0.033,-13.149 8.676,10.29 z"/>
          </g>
          <g transform="translate(117.2197,194.2603)" id="g119">
            <path inkscape:connector-curvature="0" id="path121" style="fill:#fdb912;fill-opacity:1;fill-rule:evenodd;stroke:none" d="m 0,0 7.576,10.763 -7.68,10.067 12.342,-3.87 8.658,11.86 0.415,-14.707 12.3,-3.857 -12.011,-3.89 0.033,-13.15 -8.676,10.29 z"/>
          </g>
        </g>
      </g>
    </g>
  </g>
</svg>